# xmcd
#
# Track frame offsets:
#	150
#	15384
#	33912
#	50151
#	66922
#	85307
#	103500
#	118315
#	134457
#	151366
#	169936
#	186947
#	203601
#	220281
#
# Disc length: 2974 seconds
#
# Revision: 0
# Processed by: cddbd v1.5.2PL0 Copyright (c) Steve Scherf et al.
# Submitted via: EasyCDDAExtractor 10.0.2.1
#
DISCID=c80b9c0e
DTITLE=Gordon Chambers - Love Stories
DYEAR=2007
DGENRE=Soul
TTITLE0=The Next Time
TTITLE1=Stay Together
TTITLE2=To Love Again feat Ledisi
TTITLE3=Stay
TTITLE4=Get To Know
TTITLE5=I Wish I Was In Love
TTITLE6=Unfair
TTITLE7=Violins
TTITLE8=Bygones
TTITLE9=By My Side
TTITLE10=If You Love Me
TTITLE11=Still Blessing Me feat Melonie Daniels
TTITLE12=If It Wasn't For Your Love
TTITLE13=Dedication
EXTD=
EXTT0=
EXTT1=
EXTT2=
EXTT3=
EXTT4=
EXTT5=
EXTT6=
EXTT7=
EXTT8=
EXTT9=
EXTT10=
EXTT11=
EXTT12=
EXTT13=
PLAYORDER=
